<svg xmlns="http://www.w3.org/2000/svg" width="125" height="40" viewBox="0 0 80 30" fill="none">
    <path d="M40.5571 12.8625L38.551 17.177H42.5631L40.5571 12.8625ZM43.1189 18.4984H37.9817L37.0871 20.4031H35.4741L39.7302 11.3337H41.3839L45.6401 20.4031H44.0269L43.1189 18.4984Z" fill="white"/>
    <path d="M50.8989 15.5833C50.447 15.1861 49.8416 14.9872 49.0826 14.9872C48.6577 14.9872 48.3236 15.0543 48.0796 15.1881C47.8356 15.3222 47.7136 15.5101 47.7136 15.7518C47.7225 16.0024 47.8492 16.1881 48.0931 16.3089C48.3371 16.43 48.694 16.5161 49.1639 16.568C49.4621 16.5939 49.7197 16.6243 49.9364 16.6587C50.1534 16.6933 50.4018 16.7558 50.682 16.8466C50.962 16.9373 51.1903 17.0496 51.3666 17.1835C51.5428 17.3174 51.6919 17.503 51.8137 17.7406C51.9358 17.9782 51.9967 18.2569 51.9967 18.5763C51.9967 19.1722 51.7369 19.6581 51.2175 20.0338C50.6977 20.4096 50.0087 20.5975 49.1505 20.5975C47.8492 20.5975 46.8325 20.2045 46.1006 19.4184L46.8325 18.4727C47.429 19.086 48.2105 19.4012 49.1774 19.4184C49.557 19.4184 49.8891 19.3472 50.1737 19.2047C50.4584 19.0621 50.6007 18.8484 50.6007 18.5633C50.6007 18.3042 50.4719 18.1098 50.2144 17.9802C49.9569 17.8508 49.5706 17.76 49.0555 17.7081C47.2391 17.5613 46.331 16.9223 46.331 15.7906C46.331 15.1429 46.6133 14.6592 47.1781 14.3396C47.7429 14.0201 48.3866 13.8601 49.1097 13.8601C50.1398 13.8601 50.9982 14.1409 51.6851 14.7023L50.8989 15.5833Z" fill="white"/>
    <path d="M54.7892 20.4031H53.3932V13.9897H54.7892V20.4031ZM53.488 12.7459C53.3163 12.5991 53.2305 12.3961 53.2305 12.137C53.2305 11.8779 53.3163 11.6771 53.488 11.5345C53.6596 11.392 53.863 11.3208 54.0981 11.3208C54.3329 11.3208 54.5361 11.392 54.7079 11.5345C54.8796 11.6771 54.9655 11.8779 54.9655 12.137C54.9655 12.3961 54.8796 12.5991 54.7079 12.7459C54.5361 12.893 54.3329 12.9662 54.0981 12.9662C53.863 12.9662 53.6596 12.893 53.488 12.7459Z" fill="white"/>
    <path d="M59.8993 15.117C59.2848 15.117 58.7628 15.2876 58.3338 15.6286C57.9044 15.9699 57.6899 16.4559 57.6899 17.0864C57.6899 17.6997 57.9 18.1791 58.3203 18.5245C58.7403 18.87 59.2666 19.0426 59.8993 19.0426C60.5228 19.0426 61.04 18.8593 61.4512 18.492C61.8623 18.1251 62.068 17.6563 62.068 17.0864C62.068 16.4818 61.8579 16.0024 61.4378 15.6481C61.0176 15.2941 60.5046 15.117 59.8993 15.117ZM62.434 13.4584L63.4505 14.2099L62.6508 15.1039C63.193 15.7086 63.4641 16.3694 63.4641 17.0864C63.4641 18.2957 62.8722 19.1249 61.6885 19.5738C62.863 19.9626 63.4505 20.6577 63.4505 21.6599C63.4505 22.4804 63.0958 23.1195 62.3865 23.5773C61.6771 24.0351 60.839 24.2641 59.8721 24.2641C58.7787 24.2641 57.9089 24.0115 57.2629 23.5062C56.6168 23.0009 56.3118 22.3077 56.348 21.4266H57.7442C57.726 21.8931 57.9293 22.2667 58.3541 22.5473C58.7787 22.8279 59.2848 22.9684 59.8721 22.9684C60.4415 22.9684 60.9384 22.854 61.3632 22.6252C61.7877 22.3963 62.0003 22.0745 62.0003 21.6599C62.0003 21.2193 61.8082 20.878 61.4242 20.6363C61.04 20.3946 60.5317 20.2736 59.8993 20.2736C58.8058 20.2736 57.9293 19.9885 57.2697 19.4184C56.61 18.8484 56.2803 18.071 56.2803 17.0864C56.2803 16.0757 56.6395 15.2876 57.3578 14.7217C58.0762 14.1561 58.9234 13.873 59.8993 13.873C60.6672 13.873 61.2683 14.02 61.702 14.3136L62.434 13.4584Z" fill="white"/>
    <path d="M70.0786 20.4031V16.9826C70.0786 16.4212 69.9204 15.9699 69.6042 15.6287C69.2878 15.2876 68.8452 15.1169 68.2759 15.1169C67.7245 15.1169 67.2749 15.3069 66.9272 15.687C66.5793 16.0671 66.4053 16.5249 66.4053 17.0603V20.4031H65.0093V14.0026H66.2834L66.3647 14.9356C66.9971 14.2359 67.7472 13.886 68.6147 13.886C69.4552 13.886 70.1441 14.1581 70.6819 14.7023C71.2193 15.2465 71.4883 16.0025 71.4883 16.9697V20.4031H70.0786Z" fill="white"/>
    <path d="M76.4353 15.091C75.8208 15.091 75.3058 15.2853 74.8902 15.674C74.4744 16.0627 74.2667 16.5724 74.2667 17.2029C74.2667 17.8422 74.4744 18.3561 74.8902 18.7447C75.3058 19.1334 75.8208 19.3278 76.4353 19.3278C77.1221 19.3278 77.6554 19.1184 78.0348 18.6994C78.4143 18.2805 78.6041 17.7816 78.6041 17.2029C78.6041 16.6328 78.4143 16.1385 78.0348 15.7194C77.6554 15.3005 77.1221 15.091 76.4353 15.091ZM78.6448 14.0156H80.0001V20.4031H78.6718L78.6041 19.3666C78.4053 19.7552 78.0844 20.0534 77.6417 20.2606C77.1989 20.468 76.7516 20.5715 76.2998 20.5715C75.2877 20.5715 74.4632 20.2758 73.8261 19.684C73.1891 19.0926 72.8706 18.2653 72.8706 17.2029C72.8706 16.1663 73.198 15.3523 73.8531 14.7606C74.5083 14.169 75.3329 13.8731 76.327 13.8731C76.8149 13.8731 77.2643 13.9747 77.6757 14.1775C78.0867 14.3806 78.3961 14.6634 78.6041 15.0263L78.6448 14.0156Z" fill="white"/>
    <path d="M0 15C0 23.271 6.72894 30 15 30C23.271 30 30 23.271 30 15C30 6.72891 23.271 1.90735e-06 15 1.90735e-06C6.72894 1.90735e-06 0 6.72891 0 15ZM0.960719 15C0.960719 7.25869 7.25872 0.960718 15 0.960718C22.7413 0.960718 29.0393 7.25869 29.0393 15C29.0393 22.7413 22.7413 29.0393 15 29.0393C7.25872 29.0393 0.960719 22.7413 0.960719 15Z" fill="url(#paint0_linear_9506_35688)"/>
    <path d="M14.1509 4.40187C13.4762 4.57071 12.8786 4.97841 12.4783 5.55626C12.4472 5.59943 12.4188 5.6427 12.393 5.68726C12.3755 5.7116 12.3607 5.73733 12.3458 5.76287L11.9334 6.47983L11.8698 6.59059L11.3884 7.42642L11.3385 7.51275L10.0986 9.66492L10.0553 9.73783L9.60107 10.5278L9.55092 10.6142L9.10474 11.3892L9.03985 11.504L7.47011 14.2287L7.40642 14.3367L7.03334 14.9848L6.98861 15.0644L6.28287 16.2877L5.9449 16.8749L5.56359 17.538L5.51074 17.6285L4.51155 19.3634L4.40615 19.5471L4.27767 19.7685L4.20195 19.9022L3.88955 20.4436C3.87601 20.4666 3.86398 20.4909 3.85174 20.5151C3.84903 20.5179 3.84773 20.5206 3.84773 20.5219C3.77332 20.6732 3.7327 20.8298 3.72066 20.9851C3.66931 21.6385 4.13436 22.265 4.82395 22.3596C4.85364 22.3649 4.88343 22.3676 4.91311 22.3703C4.9443 22.3716 4.97539 22.373 5.00648 22.373H6.35458L6.3965 22.3123L6.44113 22.2475L7.27264 21.0539L7.32539 20.9783L8.06503 19.9157L8.10956 19.8508L8.49898 19.2919L8.54632 19.2243L8.77628 18.8936C9.07094 18.4696 9.55233 18.2509 10.0336 18.2724C10.0594 18.2724 10.0864 18.2739 10.1121 18.2766C10.3 18.294 10.4852 18.348 10.6597 18.4427C10.684 18.4534 10.7084 18.4669 10.7313 18.4818C10.757 18.4965 10.7828 18.5129 10.8072 18.5304C11.2141 18.8138 11.4331 19.2676 11.4331 19.728V19.7388C11.4331 19.7738 11.4318 19.8077 11.4278 19.8427C11.4088 20.0913 11.3263 20.3382 11.1735 20.5584L10.5651 21.4333L10.5204 21.4981L10.2107 21.9409L10.1527 22.0246L10.0728 22.1395L9.96472 22.2946L9.91066 22.373H11.8577C11.8929 22.373 11.9293 22.3716 11.9644 22.3703C12.6474 22.338 13.2774 21.991 13.6709 21.4307L14.7999 19.8185L15.5477 18.7505L16.7916 16.975C16.8659 16.8696 16.9538 16.7792 17.0525 16.7049C17.1066 16.6644 17.162 16.6293 17.2202 16.5982C17.2553 16.5807 17.2905 16.5645 17.3257 16.5497H17.327C17.35 16.5403 17.3729 16.5307 17.396 16.5226C17.4284 16.5118 17.4622 16.5024 17.496 16.4943C17.5258 16.4862 17.5569 16.4808 17.588 16.4768C17.5948 16.474 17.6015 16.4726 17.6096 16.4726C17.6353 16.4685 17.6623 16.4645 17.688 16.4632H17.6895C17.7219 16.4604 17.7543 16.4591 17.7867 16.4591C18.0369 16.4591 18.2897 16.5374 18.506 16.6968C18.5358 16.7184 18.5642 16.7414 18.5913 16.7657C18.6129 16.7846 18.6319 16.8021 18.6507 16.8224C18.6791 16.8507 18.7062 16.8819 18.7305 16.9129C18.7521 16.9398 18.7737 16.9682 18.7927 16.9966C18.8359 17.06 18.8725 17.1275 18.901 17.1963C18.9104 17.2179 18.9184 17.2396 18.9265 17.2612C18.9347 17.2828 18.9415 17.3044 18.9482 17.326C18.9617 17.3719 18.9712 17.4177 18.9793 17.4637C18.9887 17.5096 18.9941 17.5555 18.9955 17.6015C19.005 17.7743 18.9793 17.9485 18.913 18.1145C18.8793 18.2009 18.8346 18.2833 18.7805 18.3629L18.7481 18.4089V18.4101L18.2032 19.1893L17.5217 20.1655L17.2661 20.5313C17.2121 20.6096 17.1675 20.6921 17.135 20.7744C17.112 20.8298 17.0944 20.8865 17.0822 20.9418C17.0755 20.9702 17.0702 20.9999 17.0661 21.0284C17.0539 21.1039 17.0512 21.1795 17.0552 21.2551C17.0566 21.2739 17.0579 21.293 17.0593 21.3118C17.0647 21.3672 17.0742 21.4224 17.0876 21.4779C17.0917 21.4941 17.0957 21.509 17.0999 21.5238C17.1215 21.598 17.1512 21.671 17.1864 21.7397C17.1945 21.7546 17.2027 21.7695 17.2107 21.783C17.2296 21.8167 17.25 21.8493 17.2729 21.8802C17.2729 21.8816 17.2743 21.8829 17.2743 21.8829C17.2918 21.9072 17.3108 21.9315 17.3297 21.9544C17.3406 21.9679 17.3513 21.9802 17.3635 21.9937C17.3825 22.0139 17.4014 22.0342 17.4216 22.0531C17.4243 22.0558 17.427 22.0598 17.4311 22.0612C17.4555 22.0841 17.4812 22.1058 17.5068 22.1274C17.5095 22.1287 17.5108 22.13 17.5123 22.1314C17.5271 22.1435 17.5419 22.1543 17.5582 22.165C17.5717 22.1747 17.5853 22.184 17.5988 22.1921C17.6245 22.2083 17.6516 22.2245 17.6786 22.238C17.7015 22.2516 17.7259 22.2623 17.7501 22.2731C17.7516 22.2745 17.7528 22.2745 17.7528 22.2745C17.7786 22.2866 17.8043 22.296 17.8313 22.3055C17.8814 22.3231 17.9342 22.338 17.9882 22.3488C18.0045 22.3528 18.0219 22.3555 18.0396 22.3581C18.0721 22.3636 18.1045 22.3676 18.1383 22.369C18.1679 22.3716 18.1977 22.373 18.2289 22.373H24.8705C24.9638 22.373 25.0558 22.3636 25.1423 22.346C25.1639 22.342 25.1855 22.3366 25.2072 22.3312C25.2707 22.3151 25.333 22.2946 25.3924 22.2691C25.4168 22.2583 25.4412 22.2475 25.4655 22.2353C25.487 22.2258 25.5074 22.2151 25.5276 22.2029C25.5303 22.2002 25.533 22.1989 25.5358 22.1975C25.5898 22.1678 25.6412 22.1327 25.6899 22.0948C25.6993 22.0881 25.7089 22.08 25.7183 22.0719C25.7413 22.0531 25.7629 22.0342 25.7845 22.0139C25.8088 21.991 25.8318 21.9666 25.8548 21.9409C25.8764 21.9194 25.8968 21.8964 25.9157 21.8735C25.944 21.8357 25.9725 21.7965 25.9982 21.7574C26.0076 21.7425 26.0171 21.7263 26.0266 21.7102C26.0481 21.6723 26.0698 21.6319 26.0888 21.5913C26.0955 21.5737 26.1037 21.5562 26.1103 21.5385C26.1293 21.4942 26.1442 21.4495 26.1578 21.4036C26.1645 21.382 26.1699 21.3618 26.174 21.3401C26.1793 21.3212 26.1833 21.3023 26.186 21.2834C26.1874 21.2767 26.1888 21.2686 26.1901 21.2618L26.1942 21.2416C26.1983 21.2159 26.201 21.1889 26.2037 21.1619C26.2064 21.1348 26.2091 21.1079 26.2091 21.0795C26.2172 20.8392 26.1591 20.5894 26.0212 20.356L24.4744 17.7499L24.4135 17.6474L24.2269 17.3328L23.9092 16.798V16.7967L23.9023 16.7858L23.859 16.713L22.6003 14.5932L22.5421 14.4946L22.503 14.4284L21.7323 13.1296L21.6889 13.058L21.4929 12.7258L21.4104 12.5894L21.3144 12.4261L20.7938 11.5485L20.6735 11.346L20.5882 11.2029L18.4993 7.6815L18.4587 7.614L17.7624 6.43936L17.7191 6.36776L17.3406 5.72912C17.2825 5.63188 17.2202 5.53874 17.1512 5.45101C17.1188 5.40775 17.0849 5.36458 17.0485 5.32412C17.0404 5.31331 17.0309 5.30249 17.02 5.29168C16.9958 5.26324 16.9701 5.23499 16.943 5.20795C16.7591 5.01487 16.5496 4.85012 16.3224 4.71643C16.3103 4.70842 16.2967 4.70031 16.2845 4.6936C16.2277 4.66115 16.1696 4.6301 16.1101 4.60166C15.8884 4.4951 15.6531 4.41679 15.4084 4.36952C15.2271 4.33437 15.0419 4.31544 14.8527 4.31544C14.6134 4.31544 14.3767 4.34518 14.1509 4.40187Z" fill="url(#paint1_linear_9506_35688)"/>
    <path d="M17.8843 15.0118C17.8667 15.0347 17.8491 15.059 17.8315 15.0833C17.4462 15.6166 17.2217 16.1837 17.1203 16.4862C17.1109 16.5118 17.1028 16.5374 17.096 16.5591C17.0663 16.6509 17.0527 16.7049 17.0527 16.7049C17.1068 16.6644 17.1623 16.6293 17.2204 16.5982C17.2555 16.5807 17.2907 16.5645 17.3259 16.5497H17.3272C17.3502 16.5388 17.3732 16.5307 17.3962 16.5226C17.4286 16.5118 17.4624 16.5024 17.4962 16.4943C17.526 16.4862 17.5571 16.4808 17.5882 16.4768C17.595 16.474 17.6017 16.4726 17.6098 16.4726C17.6355 16.4685 17.6625 16.4645 17.6882 16.4632H17.6897C17.7221 16.4604 17.7545 16.4591 17.787 16.4591C18.0371 16.4591 18.2899 16.5374 18.5062 16.6968C18.536 16.7184 18.5644 16.7414 18.5915 16.7657C18.6131 16.7846 18.6321 16.8021 18.651 16.8224C18.6793 16.8507 18.7064 16.8818 18.7307 16.9129C18.7538 16.9398 18.7739 16.9669 18.7929 16.9966C18.8361 17.06 18.8727 17.1275 18.9012 17.1963C18.9106 17.2179 18.9186 17.2396 18.9268 17.2612C18.9349 17.2828 18.9417 17.3044 18.9484 17.326C18.962 17.3719 18.9714 17.4177 18.9795 17.4637C18.9876 17.5096 18.993 17.5555 18.9958 17.6015C19.0052 17.7743 18.9795 17.9485 18.9132 18.1145C18.8795 18.2009 18.8348 18.2833 18.7807 18.3629L18.7483 18.4089V18.4101L18.2035 19.1893L17.5219 20.1655L17.2664 20.5313C17.2123 20.6096 17.1677 20.6921 17.1352 20.7744C17.1136 20.8298 17.096 20.8865 17.0824 20.9418C17.0757 20.9702 17.0704 20.9999 17.0663 21.0284C17.0541 21.1039 17.0514 21.1795 17.0554 21.2551C17.0568 21.2739 17.0581 21.293 17.0596 21.3118C17.0649 21.3672 17.0744 21.4224 17.0878 21.4779C17.0919 21.4941 17.096 21.509 17.1001 21.5238C17.1217 21.598 17.1514 21.671 17.1866 21.7397C17.1947 21.7532 17.2015 21.7668 17.2082 21.7804L17.2109 21.783C17.2298 21.8167 17.2502 21.8493 17.2731 21.8802C17.2731 21.8816 17.2745 21.8829 17.2745 21.8829C17.292 21.9072 17.311 21.9315 17.3299 21.9544C17.3408 21.9679 17.3515 21.9802 17.3637 21.9937C17.3827 22.0139 17.4016 22.0342 17.4218 22.0531C17.4245 22.0558 17.4272 22.0598 17.4313 22.0612C17.4557 22.0841 17.4814 22.1058 17.507 22.1274C17.5098 22.1287 17.5111 22.13 17.5125 22.1314C17.5273 22.1435 17.5421 22.1543 17.5584 22.165C17.5719 22.1747 17.5855 22.184 17.599 22.1921C17.6247 22.2083 17.6518 22.2245 17.6788 22.238C17.7017 22.2516 17.7261 22.2623 17.7504 22.2731C17.7519 22.2745 17.7531 22.2745 17.7531 22.2745C17.7788 22.2866 17.8045 22.296 17.8315 22.3055C17.8816 22.3231 17.9344 22.338 17.9884 22.3488C18.0047 22.3528 18.0221 22.3555 18.0398 22.3581C18.0723 22.3636 18.1047 22.3676 18.1385 22.369C18.1682 22.3716 18.1979 22.373 18.2291 22.373H24.8707C24.964 22.373 25.056 22.3636 25.1425 22.346C25.1641 22.342 25.1858 22.3366 25.2074 22.3312C25.2709 22.3151 25.3332 22.2946 25.3927 22.2691C25.417 22.2583 25.4414 22.2475 25.4657 22.2353C25.4872 22.2258 25.5076 22.2151 25.5278 22.2029L25.536 22.1989V22.1975C25.59 22.1678 25.6414 22.1327 25.6901 22.0948C25.6995 22.0881 25.7091 22.08 25.7185 22.0719C25.7415 22.0531 25.7631 22.0342 25.7847 22.0139C25.8091 21.991 25.832 21.9666 25.855 21.9409C25.8767 21.9194 25.897 21.8964 25.9159 21.8735C25.9443 21.8357 25.9727 21.7965 25.9984 21.7574C26.0078 21.7425 26.0174 21.7263 26.0268 21.7102C26.0484 21.6723 26.07 21.6319 26.089 21.5913C26.0957 21.5737 26.1039 21.5562 26.1105 21.5385C26.1295 21.4942 26.1444 21.4495 26.158 21.4036C26.1647 21.382 26.1701 21.3618 26.1742 21.3401C26.1795 21.3212 26.1835 21.3023 26.1863 21.2834C26.1891 21.2699 26.1917 21.2564 26.1932 21.2429L26.1944 21.2416C26.1985 21.2159 26.2012 21.1889 26.2039 21.1619C26.2066 21.1348 26.2093 21.1079 26.2093 21.0795C26.2174 20.8392 26.1593 20.5894 26.0214 20.356L24.4746 17.7499L24.4137 17.6474L24.2271 17.3328L23.9094 16.798V16.7967L23.9025 16.7858L23.8592 16.713L22.6005 14.5932C22.5654 14.5715 22.5302 14.5486 22.495 14.5271C22.4707 14.5122 22.4463 14.4986 22.4207 14.4838C21.865 14.1584 21.1537 13.8789 20.3141 13.833C20.287 13.8304 20.26 13.829 20.2329 13.829C20.1762 13.8263 20.1193 13.8248 20.0611 13.8248C19.0619 13.8248 18.3588 14.3853 17.8843 15.0118Z" fill="url(#paint2_linear_9506_35688)"/>
    <path d="M11.4341 19.7279C11.4341 20.0152 11.3499 20.3044 11.1738 20.5585L9.91145 22.3721H6.35547L8.77637 18.8934C9.2362 18.2329 10.1463 18.0706 10.8077 18.5299C11.2148 18.8133 11.4341 19.2668 11.4341 19.7279Z" fill="white"/>
    <path d="M10.3443 19.892C10.3443 20.1927 10.1002 20.4365 9.79908 20.4365C9.49801 20.4365 9.25391 20.1927 9.25391 19.892C9.25391 19.5914 9.49801 19.3475 9.79908 19.3475C10.1002 19.3475 10.3443 19.5914 10.3443 19.892Z" fill="black"/>
    <defs>
        <linearGradient id="paint0_linear_9506_35688" x1="12.0091" y1="29.0708" x2="17.8164" y2="1.74978" gradientUnits="userSpaceOnUse">
            <stop stop-color="#842C00"/>
            <stop offset="0.136672" stop-color="#842C00"/>
            <stop offset="0.5538" stop-color="#FC5A00"/>
            <stop offset="0.988604" stop-color="#F7941D"/>
            <stop offset="1" stop-color="#F7941D"/>
        </linearGradient>
        <linearGradient id="paint1_linear_9506_35688" x1="14.2603" y1="24.366" x2="18.3713" y2="4.99787" gradientUnits="userSpaceOnUse">
            <stop stop-color="#842C00"/>
            <stop offset="0.136672" stop-color="#842C00"/>
            <stop offset="0.5538" stop-color="#FC5A00"/>
            <stop offset="0.988604" stop-color="#F7941D"/>
            <stop offset="1" stop-color="#F7941D"/>
        </linearGradient>
        <linearGradient id="paint2_linear_9506_35688" x1="19.0833" y1="23.0877" x2="23.7792" y2="15.3015" gradientUnits="userSpaceOnUse">
            <stop stop-color="#842C00"/>
            <stop offset="0.136672" stop-color="#842C00"/>
            <stop offset="0.5538" stop-color="#FC5A00"/>
            <stop offset="0.988604" stop-color="#F7941D"/>
            <stop offset="1" stop-color="#F7941D"/>
        </linearGradient>
    </defs>
</svg>